<?xml version="1.0" encoding="utf-8"?>
<!-- Uploaded to: SVG Repo, www.svgrepo.com, Generator: SVG Repo Mixer Tools -->
<svg width="800px" height="800px" viewBox="0 0 1024 1024" class="icon"  version="1.1" xmlns="http://www.w3.org/2000/svg"><path d="M479.4 320.2L106 320c-4.3 0-7.6 3.7-7.1 8l66 553c5.3 44.8 43.4 78.6 88.5 78.6h299.2c45.2 0 83.3-33.9 88.5-78.8L704.9 332c0.7-6.4-4.3-12-10.7-12l-214.8 0.2z" fill="#EF0303" /><path d="M106.1 320s-26.5-55.7 22.9-63.2c6.4-1 11.4-6.1 12-12.5 1.4-14.5 8.4-38.1 37.9-44.6 7.4-1.6 12.1-8.7 10.9-16-3.8-22.9-2.8-64.6 57.5-57.3 6.2 0.7 12.2-2.6 14.8-8.2 12.1-26.6 53.3-93 143.8-25.3 4.4 3.3 10.2 3.8 15.1 1.4 19.2-9.4 67.1-28.6 93 25.3 2.3 4.9 7.4 8 12.9 8 19.5 0.1 62.4 6.9 55.8 64.2 0 4 63.9-10 65.3 52 0.2 6.6 4.9 12.2 11.5 13.5 16.2 3.2 43.2 13.6 43.9 48.4 0.2 7.9-6.3 14.3-14.3 14.3l-577.9 0.2M768.1 895.6s-56.8-5-42.5-63.9c0 0-28.4-63.9 42.5-63.9 0 0 8.9-67.8 64-26.1 2.8 0 74.5-29 64 44 0-1.3 51.2-7.3 31.8 46.1 0-2.7 31.1 63.9-32.4 63.9 0 0 0.5 52-63.5 32.7 0.2-0.1-57.3 20.6-63.9-32.8z" fill="#f4ea29" /><path d="M372.2 956.5l-1.8-633.2c0-1.7 1.4-3.1 3-3.1l53.9-0.2c1.7 0 3.1 1.4 3.1 3l1.8 633.2c0 1.7-1.4 3.1-3 3.1l-53.9 0.2c-1.7 0.1-3.1-1.3-3.1-3zM244.1 957.4l-1.8-634.9c0-1.2 1-2.2 2.2-2.2l55.5-0.2c1.2 0 2.2 1 2.2 2.2l1.8 634.9c0 1.2-1 2.2-2.2 2.2l-55.5 0.2c-1.2 0-2.2-1-2.2-2.2zM498.7 956.3l-1.8-632.7c0-1.8 1.5-3.3 3.3-3.3l53.4-0.2c1.8 0 3.3 1.5 3.3 3.3l1.8 632.7c0 1.8-1.5 3.3-3.3 3.3l-53.4 0.2c-1.8 0-3.3-1.5-3.3-3.3z" fill="#FFFFFF" /></svg>